<?xml version="1.0" encoding="UTF-8"?>
<svg version="1.1" xmlns="http://www.w3.org/2000/svg" width="150" height="150">
<path d="M0 0 C49.5 0 99 0 150 0 C150 49.5 150 99 150 150 C100.5 150 51 150 0 150 C0 100.5 0 51 0 0 Z " fill="#D2C7B0" transform="translate(0,0)"/>
<path d="M0 0 C4.55958589 0.54039537 7.83029037 1.73379042 11.8125 4 C12.76769531 4.53625 13.72289063 5.0725 14.70703125 5.625 C17 7 17 7 18 8 C20.09169764 7.75996912 22.18316733 7.51778458 24.2734375 7.265625 C31.10374718 6.60020801 37.52208702 6.46802831 44.125 8.4375 C47.42660945 9.2190404 48.59626373 9.20511931 51.66796875 7.64453125 C53.37924155 6.41858249 55.05312351 5.13791445 56.67578125 3.796875 C59.07684627 1.94058944 61.1102738 0.90007865 64 0 C66.8125 0.375 66.8125 0.375 69 1 C70.29411454 4.88234363 70.18995259 8.5786405 70.1875 12.625 C70.18959473 13.43735107 70.19168945 14.24970215 70.19384766 15.08666992 C70.16243071 19.3173432 69.95819806 23.19634737 68.875 27.3125 C67.89461335 31.44412945 68.3300092 32.28890933 70 36 C70.18381174 39.00736437 70.11801408 41.99064093 70 45 C71.65 45.33 73.3 45.66 75 46 C74.1875 47.9375 74.1875 47.9375 73 50 C71.515 50.495 71.515 50.495 70 51 C70.99 53.64 71.98 56.28 73 59 C69.25 62 69.25 62 67 62 C66.505 57.545 66.505 57.545 66 53 C65.34 53 64.68 53 64 53 C64.0825 54.0725 64.165 55.145 64.25 56.25 C64 60 64 60 62.25 62.4375 C60 64 60 64 56 64 C53.43228397 60.69865082 53 59.27125508 53 55 C51.32430076 53.45801644 51.32430076 53.45801644 49.125 52.3125 C48.40570313 51.89613281 47.68640625 51.47976562 46.9453125 51.05078125 C45.64123918 50.34637217 44.32568454 49.66284227 43 49 C43 50.32 43 51.64 43 53 C36.65624789 53.45312515 32.24955089 52.73421662 27 49 C24.21534077 46.28782648 21.74411329 43.48822659 20 40 C18.64145975 41.15140868 18.64145975 41.15140868 18.625 44.25 C18 48 18 48 16.375 50.625 C14.71318417 52.95357712 14.71318417 52.95357712 15.3125 55.8125 C15.539375 56.534375 15.76625 57.25625 16 58 C14.68 58.66 13.36 59.32 12 60 C12 61.32 12 62.64 12 64 C7.25 63.25 7.25 63.25 5 61 C4.43479997 58.34462628 4.26211802 55.70855287 4 53 C3.34 53 2.68 53 2 53 C2 56.3 2 59.6 2 63 C0.02 62.01 -1.96 61.02 -4 60 C-3.835 59.4225 -3.67 58.845 -3.5 58.25 C-2.85537969 55.73335631 -2.85537969 55.73335631 -3 52 C-3.495 51.505 -3.99 51.01 -4.5 50.5 C-4.995 50.005 -5.49 49.51 -6 49 C-6 47.68 -6 46.36 -6 45 C-4.35 45 -2.7 45 -1 45 C-1.01160156 44.26394531 -1.02320313 43.52789062 -1.03515625 42.76953125 C-1.04417969 41.79371094 -1.05320312 40.81789062 -1.0625 39.8125 C-1.07410156 38.84957031 -1.08570313 37.88664062 -1.09765625 36.89453125 C-1 34 -1 34 -0.37109375 31.57421875 C0.13840307 28.03991977 -1.01121851 25.41774472 -2 22 C-2.27975988 19.11955968 -2.28065706 16.26698237 -2.25 13.375 C-2.25773437 12.63765625 -2.26546875 11.9003125 -2.2734375 11.140625 C-2.2585497 6.98692885 -1.85899333 3.73274057 0 0 Z " fill="#F9642D" transform="translate(41,24)"/>
<path d="M0 0 C2.1144674 1.6563328 4.13803416 3.37744186 6.15625 5.1484375 C9.38256237 7.27487065 12.53540896 8.80355369 16.15625 10.1484375 C15.34375 12.0859375 15.34375 12.0859375 14.15625 14.1484375 C12.67125 14.6434375 12.67125 14.6434375 11.15625 15.1484375 C12.14625 17.7884375 13.13625 20.4284375 14.15625 23.1484375 C10.40625 26.1484375 10.40625 26.1484375 8.15625 26.1484375 C7.66125 21.6934375 7.66125 21.6934375 7.15625 17.1484375 C6.49625 17.1484375 5.83625 17.1484375 5.15625 17.1484375 C5.23875 18.2209375 5.32125 19.2934375 5.40625 20.3984375 C5.15625 24.1484375 5.15625 24.1484375 3.40625 26.5859375 C1.15625 28.1484375 1.15625 28.1484375 -2.84375 28.1484375 C-5.41146603 24.84708832 -5.84375 23.41969258 -5.84375 19.1484375 C-7.51944924 17.60645394 -7.51944924 17.60645394 -9.71875 16.4609375 C-10.43804687 16.04457031 -11.15734375 15.62820312 -11.8984375 15.19921875 C-13.20251082 14.49480967 -14.51806546 13.81127977 -15.84375 13.1484375 C-15.84375 14.4684375 -15.84375 15.7884375 -15.84375 17.1484375 C-22.18750211 17.60156265 -26.59419911 16.88265412 -31.84375 13.1484375 C-34.62840923 10.43626398 -37.09963671 7.63666409 -38.84375 4.1484375 C-40.20229025 5.29984618 -40.20229025 5.29984618 -40.21875 8.3984375 C-40.84375 12.1484375 -40.84375 12.1484375 -42.46875 14.7734375 C-44.13056583 17.10201462 -44.13056583 17.10201462 -43.53125 19.9609375 C-43.1909375 21.04375 -43.1909375 21.04375 -42.84375 22.1484375 C-44.82375 23.1384375 -44.82375 23.1384375 -46.84375 24.1484375 C-46.84375 25.4684375 -46.84375 26.7884375 -46.84375 28.1484375 C-51.59375 27.3984375 -51.59375 27.3984375 -53.84375 25.1484375 C-54.40895003 22.49306378 -54.58163198 19.85699037 -54.84375 17.1484375 C-55.50375 17.1484375 -56.16375 17.1484375 -56.84375 17.1484375 C-56.84375 20.4484375 -56.84375 23.7484375 -56.84375 27.1484375 C-58.82375 26.1584375 -60.80375 25.1684375 -62.84375 24.1484375 C-62.67875 23.5709375 -62.51375 22.9934375 -62.34375 22.3984375 C-61.69912969 19.88179381 -61.69912969 19.88179381 -61.84375 16.1484375 C-62.33875 15.6534375 -62.83375 15.1584375 -63.34375 14.6484375 C-63.83875 14.1534375 -64.33375 13.6584375 -64.84375 13.1484375 C-64.84375 11.8284375 -64.84375 10.5084375 -64.84375 9.1484375 C-63.95816406 8.89578125 -63.07257812 8.643125 -62.16015625 8.3828125 C-58.75479363 7.11532771 -56.60706734 5.65210326 -53.78125 3.3984375 C-36.70841171 -9.44127239 -18.20851568 -11.85554455 0 0 Z " fill="#3F383A" transform="translate(99.84375,59.8515625)"/>
<path d="M0 0 C2.12024286 2.04541076 3.93908728 4.18040393 5.75 6.5 C10.72659707 12.31011579 16.7096316 13.360494 24 14 C23.505 11.03 23.505 11.03 23 8 C35 16 35 16 35.625 18.375 C35.74875 19.24125 35.8725 20.1075 36 21 C36.32483418 22.33542939 36.6550855 23.66961551 37 25 C39.91517292 23.92598892 41.77810176 23.22189824 44 21 C44.40047444 18.67724823 44.7397104 16.34260643 45 14 C45.66 14 46.32 14 47 14 C47.08121924 15.60332791 47.13929134 17.20784026 47.1875 18.8125 C47.23970703 20.15248047 47.23970703 20.15248047 47.29296875 21.51953125 C47 24 47 24 45.78125 25.8125 C43.47859892 27.34760072 42.05533666 27.30675377 39.3125 27.1875 C38.50425781 27.16042969 37.69601563 27.13335937 36.86328125 27.10546875 C36.24839844 27.07066406 35.63351563 27.03585938 35 27 C34.91234375 27.58523437 34.8246875 28.17046875 34.734375 28.7734375 C33.80214104 31.59989154 32.50205655 32.70313219 30.25 34.625 C29.57453125 35.21539062 28.8990625 35.80578125 28.203125 36.4140625 C22.02586797 40.86081136 15.36181746 40.86347799 8 40 C2.29529409 37.88006941 -1.53107868 33.8781706 -5 29 C-5 28.34 -5 27.68 -5 27 C-6.2375 27.061875 -7.475 27.12375 -8.75 27.1875 C-11.40427391 27.16401085 -12.95105222 27.02008114 -15.4375 26 C-17.91725056 22.82591928 -17.80969624 19.99637898 -18 16 C-17.67 15.34 -17.34 14.68 -17 14 C-16.34 14 -15.68 14 -15 14 C-14.84144531 14.62648438 -14.68289062 15.25296875 -14.51953125 15.8984375 C-13.2094023 21.15624686 -13.2094023 21.15624686 -9.3125 24.5625 C-8.549375 24.706875 -7.78625 24.85125 -7 25 C-7 23.68 -7 22.36 -7 21 C-6.01 20.34 -5.02 19.68 -4 19 C-4.3403125 17.9171875 -4.3403125 17.9171875 -4.6875 16.8125 C-5.09405494 13.15350556 -3.90742264 12.10839244 -2 9 C-1.16857145 6.02989681 -0.56142702 3.03170592 0 0 Z " fill="#FCD1A1" transform="translate(60,63)"/>
<path d="M0 0 C0.66 0.99 1.32 1.98 2 3 C4.47266765 2.65555119 4.47266765 2.65555119 7 2 C7.33 1.34 7.66 0.68 8 0 C17.11119543 0.5942084 25.95435005 5.12365006 32 12 C34.52566617 15.8245802 36.55034126 19.65102377 38 24 C34.87155185 22.56317879 32.34780872 20.7830405 29.625 18.6875 C20.25865049 12.10350725 9.48294923 8.32605509 -2 10 C-11.64007117 12.40330465 -21.58813933 17.35488353 -29 24 C-25.98494556 13.51583341 -21.21224829 8.75765518 -12 3 C-8.15330388 0.89171463 -4.45920271 -0.76443475 0 0 Z " fill="#FAF3E1" transform="translate(71,43)"/>
<path d="M0 0 C0.66 1.98 1.32 3.96 2 6 C2.33 6 2.66 6 3 6 C3.34586104 17.35577091 3.34586104 17.35577091 1.875 22.9375 C0.8953311 26.73371699 1.3391948 28.40158874 3 32 C3.18217957 34.69220926 3.09161779 37.29727509 3 40 C2.34 40 1.68 40 1 40 C0.69707031 39.34773438 0.39414063 38.69546875 0.08203125 38.0234375 C-3.54191015 30.46333821 -6.75579792 25.13620257 -14.25 21 C-18.86222628 18.41332117 -18.86222628 18.41332117 -20.125 14.625 C-20.08375 13.75875 -20.0425 12.8925 -20 12 C-19.360625 11.896875 -18.72125 11.79375 -18.0625 11.6875 C-17.0415625 11.3471875 -17.0415625 11.3471875 -16 11 C-15.67 10.01 -15.34 9.02 -15 8 C-12.63671875 5.95703125 -12.63671875 5.95703125 -9.6875 3.8125 C-8.72199219 3.09707031 -7.75648437 2.38164062 -6.76171875 1.64453125 C-4 0 -4 0 0 0 Z " fill="#F3622C" transform="translate(108,28)"/>
<path d="M0 0 C0.4640625 0.9590625 0.4640625 0.9590625 0.9375 1.9375 C1.8345163 3.93610821 1.8345163 3.93610821 3 5 C5.67058851 5.14115161 8.32432238 5.04247107 11 5 C11.66 3.35 12.32 1.7 13 0 C15 0 15 0 17.29296875 2.171875 C18.18628906 3.10515625 19.07960937 4.0384375 20 5 C20.88300781 5.87140625 21.76601562 6.7428125 22.67578125 7.640625 C23.54589844 8.50171875 24.41601562 9.3628125 25.3125 10.25 C26.19550781 11.12140625 27.07851562 11.9928125 27.98828125 12.890625 C30 15 30 15 30 16 C14.82 16 -0.36 16 -16 16 C-12.18627664 11.55065608 -8.92649835 7.84084315 -4.625 4.0625 C-3.75101563 3.29035156 -2.87703125 2.51820312 -1.9765625 1.72265625 C-1.32429688 1.15417969 -0.67203125 0.58570312 0 0 Z " fill="#14121A" transform="translate(68,112)"/>
<path d="M0 0 C-0.94464954 5.72346487 -2.0008812 10.00146867 -5 15 C-4.78670551 17.74239143 -4.78670551 17.74239143 -4 20 C-5.98 20.99 -5.98 20.99 -8 22 C-8 23.32 -8 24.64 -8 26 C-12.75 25.25 -12.75 25.25 -15 23 C-15.56520003 20.34462628 -15.73788198 17.70855287 -16 15 C-16.66 15 -17.32 15 -18 15 C-18 18.3 -18 21.6 -18 25 C-19.98 24.01 -21.96 23.02 -24 22 C-23.835 21.4225 -23.67 20.845 -23.5 20.25 C-22.85537969 17.73335631 -22.85537969 17.73335631 -23 14 C-23.495 13.505 -23.99 13.01 -24.5 12.5 C-24.995 12.005 -25.49 11.51 -26 11 C-26 9.68 -26 8.36 -26 7 C-25.2265625 6.82984375 -24.453125 6.6596875 -23.65625 6.484375 C-17.89466363 5.14380788 -12.93449038 3.63341207 -7.7578125 0.78515625 C-5.15110221 -0.37917435 -2.79757463 -0.27975746 0 0 Z " fill="#41393A" transform="translate(61,62)"/>
<path d="M0 0 C8.04210526 5.08421053 8.04210526 5.08421053 10 9 C5.33383597 8.43078421 1.71713439 7.11584282 -2.5 5.0625 C-11.96970319 0.47420333 -20.65409876 -1.73933844 -31.23046875 0.46484375 C-33.2373988 1.18802323 -35.08965499 2.0483263 -37 3 C-39.22732829 4.04559177 -41.45665466 5.08693327 -43.6875 6.125 C-44.76386719 6.64320312 -45.84023438 7.16140625 -46.94921875 7.6953125 C-49.68183339 8.86393387 -52.07475094 9.55497139 -55 10 C-51.37597385 5.14019481 -48.01379662 2.45521919 -42.625 -0.25 C-41.67367187 -0.75660156 -41.67367187 -0.75660156 -40.703125 -1.2734375 C-26.65090163 -8.55765125 -13.71623887 -6.95119923 0 0 Z " fill="#131019" transform="translate(97,58)"/>
<path d="M0 0 C0.598125 0.9075 1.19625 1.815 1.8125 2.75 C4.73487099 7.09180833 8.15425906 10.01765144 13 12 C19.75565908 12.7685009 26.31227891 12.82805699 32.3046875 9.35546875 C34.78773455 7.37017537 36.54373839 4.92024571 38.48046875 2.41796875 C40 1 40 1 43.875 0.5625 C44.90625 0.706875 45.9375 0.85125 47 1 C46.8125 3.3125 46.8125 3.3125 46 6 C43.6904566 7.74776258 41.85705773 8.83930168 39 9.375 C36.68159179 9.91755224 36.68159179 9.91755224 34.625 12.5625 C32 15 32 15 28.6875 15.3125 C27.800625 15.209375 26.91375 15.10625 26 15 C25.87625 15.639375 25.7525 16.27875 25.625 16.9375 C25.315625 17.9584375 25.315625 17.9584375 25 19 C22.22899606 20.38550197 20.0665294 20.1877467 17 20 C16.01 19.34 15.02 18.68 14 18 C14 17.01 14 16.02 14 15 C13.0925 15.0825 12.185 15.165 11.25 15.25 C8 15 8 15 5.625 13.125 C4 11 4 11 4 9 C2.906875 8.896875 1.81375 8.79375 0.6875 8.6875 C-3 8 -3 8 -4.9375 6.6875 C-6 5 -6 5 -6 1 C-3.92446352 0.4465236 -2.15634036 0 0 0 Z " fill="#1E171C" transform="translate(55,90)"/>
<path d="M0 0 C1.18625977 0.01135986 1.18625977 0.01135986 2.39648438 0.02294922 C12.10516056 0.29618025 18.90803323 4.0399047 26.99609375 9.16796875 C29.18575286 10.57680169 29.18575286 10.57680169 32.125 11.4375 C33.3125 14.5 33.3125 14.5 34.125 17.4375 C30.99655185 16.00067879 28.47280872 14.2205405 25.75 12.125 C16.38365049 5.54100725 5.60794923 1.76355509 -5.875 3.4375 C-15.51507117 5.84080465 -25.46313933 10.79238353 -32.875 17.4375 C-32.1875 14.0625 -32.1875 14.0625 -30.875 10.4375 C-28.8125 9.3125 -28.8125 9.3125 -25.875 8.4375 C-23.70359787 7.2564893 -21.57830848 6.00932145 -19.44921875 4.75390625 C-12.93397593 1.42213564 -7.33669928 -0.09901715 0 0 Z " fill="#BCAC92" transform="translate(74.875,49.5625)"/>
<path d="M0 0 C4.6145074 0.46938399 7.01141059 1.37288935 10.375 4.5625 C11.06335937 5.20316406 11.75171875 5.84382813 12.4609375 6.50390625 C12.96882813 6.99761719 13.47671875 7.49132813 14 8 C13.29875 8.680625 12.5975 9.36125 11.875 10.0625 C8.72065663 13.20780513 5.86065696 16.5888386 3 20 C0.58656339 15.17312678 -0.11277881 12.40566888 -0.0625 6.875 C-0.05347656 5.59367187 -0.04445312 4.31234375 -0.03515625 2.9921875 C-0.02355469 2.00476563 -0.01195312 1.01734375 0 0 Z " fill="#181017" transform="translate(42,28)"/>
<path d="M0 0 C0.3690205 13.6332574 0.3690205 13.6332574 -2 20 C-2.680625 19.29875 -3.36125 18.5975 -4.0625 17.875 C-7.20780513 14.72065663 -10.5888386 11.86065696 -14 9 C-7 0 -7 0 0 0 Z " fill="#140E17" transform="translate(108,28)"/>
<path d="M0 0 C2.12024286 2.04541076 3.93908728 4.18040393 5.75 6.5 C10.72659707 12.31011579 16.7096316 13.360494 24 14 C23.67 12.02 23.34 10.04 23 8 C27 10.66666667 31 13.33333333 35 16 C34.34 16.99 33.68 17.98 33 19 C27.125 15.125 27.125 15.125 26 14 C25.59136719 14.4846875 25.18273437 14.969375 24.76171875 15.46875 C22.06652786 17.81135494 19.86525586 17.53765956 16.41015625 17.4140625 C9.39432548 16.2087496 5.20535047 11.31853148 1 6 C0.34 6 -0.32 6 -1 6 C-0.67 4.02 -0.34 2.04 0 0 Z " fill="#D77054" transform="translate(60,63)"/>
<path d="M0 0 C1.32 0.33 2.64 0.66 4 1 C3.01 1 2.02 1 1 1 C0.95101562 1.69867188 0.90203125 2.39734375 0.8515625 3.1171875 C0.77679688 4.02726562 0.70203125 4.93734375 0.625 5.875 C0.55539063 6.77992187 0.48578125 7.68484375 0.4140625 8.6171875 C0 11 0 11 -2 13 C-3.875 13.265625 -3.875 13.265625 -6 13.25 C-6.70125 13.25515625 -7.4025 13.2603125 -8.125 13.265625 C-10 13 -10 13 -12 11 C-12.26991906 8.31160615 -12.08737357 5.70858064 -12 3 C-11.37351562 3.08378906 -10.74703125 3.16757813 -10.1015625 3.25390625 C-8.87566406 3.40666016 -8.87566406 3.40666016 -7.625 3.5625 C-6.40683594 3.71912109 -6.40683594 3.71912109 -5.1640625 3.87890625 C-2.95100814 4.18237328 -2.95100814 4.18237328 -1 3 C-0.67 2.01 -0.34 1.02 0 0 Z " fill="#DA6F51" transform="translate(81,105)"/>
<path d="M0 0 C13.04917304 -0.67690235 20.96779361 1.81746144 31.87109375 8.73046875 C34.06075286 10.13930169 34.06075286 10.13930169 37 11 C38.1875 14.0625 38.1875 14.0625 39 17 C35.87155185 15.56317879 33.34780872 13.7830405 30.625 11.6875 C24.53435201 7.32922194 18.09681482 5.21903288 11 3 C11 2.34 11 1.68 11 1 C7.37 1 3.74 1 0 1 C0 0.67 0 0.34 0 0 Z " fill="#B7A893" transform="translate(70,50)"/>
<path d="M0 0 C0.48635236 6.32258065 0.48635236 6.32258065 -1.75 9.4375 C-4 11 -4 11 -8 11 C-9.8125 8.8125 -9.8125 8.8125 -11 6 C-10.6875 3.1875 -10.6875 3.1875 -10 1 C-3.375 0 -3.375 0 0 0 Z " fill="#2A242A" transform="translate(105,77)"/>
<path d="M0 0 C0.886875 0.70125 1.77375 1.4025 2.6875 2.125 C2.0275 3.445 1.3675 4.765 0.6875 6.125 C0.0275 6.125 -0.6325 6.125 -1.3125 6.125 C-1.3125 7.445 -1.3125 8.765 -1.3125 10.125 C-6.0625 9.375 -6.0625 9.375 -8.3125 7.125 C-8.4375 3.5 -8.4375 3.5 -8.3125 0.125 C-4.62175037 -2.0460292 -3.85452001 -2.18180378 0 0 Z " fill="#282228" transform="translate(54.3125,77.875)"/>
<path d="M0 0 C0.33 0.66 0.66 1.32 1 2 C-3.455 2.495 -3.455 2.495 -8 3 C-6.35 3.33 -4.7 3.66 -3 4 C-3 4.33 -3 4.66 -3 5 C-8.28 5.66 -13.56 6.32 -19 7 C-19 5.33333333 -19 3.66666667 -19 2 C-12.65176798 -0.30844801 -6.70518586 -0.19818283 0 0 Z " fill="#1C1820" transform="translate(81,52)"/>
<path d="M0 0 C2.35065055 1.8110553 2.95628835 2.67850783 3.36328125 5.671875 C3.26745337 11.48051888 2.99192766 16.52219893 1 22 C0.34 22 -0.32 22 -1 22 C-2.74948847 18.79260447 -3.1053454 17.4132781 -2.1875 13.8125 C-1.795625 12.554375 -1.40375 11.29625 -1 10 C-0.54795622 6.67529094 -0.25576011 3.34507301 0 0 Z " fill="#C13B21" transform="translate(108,31)"/>
<path d="M0 0 C3.73487777 0.4979837 5.81237635 0.87491756 9 3 C6.69 3.33 4.38 3.66 2 4 C1.67 7.63 1.34 11.26 1 15 C0.67 15 0.34 15 0 15 C-0.33 17.31 -0.66 19.62 -1 22 C-1.33 22 -1.66 22 -2 22 C-2.05416741 19.27056463 -2.09375225 16.54221436 -2.125 13.8125 C-2.14175781 13.04357422 -2.15851562 12.27464844 -2.17578125 11.48242188 C-2.21266851 7.1850566 -1.9958504 3.92098169 0 0 Z " fill="#F16536" transform="translate(41,24)"/>
<path d="M0 0 C3.625 -0.1875 3.625 -0.1875 7 0 C6.6875 2.375 6.6875 2.375 6 5 C2.3558226 7.4294516 0.28758728 7.16179575 -4 7 C-2.79618552 4.50638429 -1.54571278 2.31856917 0 0 Z " fill="#15131B" transform="translate(95,91)"/>
<path d="M0 0 C0.99 0.33 1.98 0.66 3 1 C7.654797 1.3053818 7.654797 1.3053818 12 0 C11.125 4.875 11.125 4.875 10 6 C4.26388889 6.27314815 4.26388889 6.27314815 2 6 C1.34 5.34 0.68 4.68 0 4 C0 2.68 0 1.36 0 0 Z " fill="#F8CD9B" transform="translate(69,112)"/>
<path d="M0 0 C1.65 0 3.3 0 5 0 C5 0.66 5 1.32 5 2 C4.34 2 3.68 2 3 2 C2.34 3.65 1.68 5.3 1 7 C-2.3 7 -5.6 7 -9 7 C-6.57331293 3.35996939 -5.03697185 3.28839527 -1 2 C-0.67 1.34 -0.34 0.68 0 0 Z " fill="#EBE6DF" transform="translate(79,43)"/>
<path d="M0 0 C0 0.33 0 0.66 0 1 C-1.12019531 1.13277344 -2.24039063 1.26554687 -3.39453125 1.40234375 C-4.86720729 1.58056569 -6.33986247 1.75896011 -7.8125 1.9375 C-8.55048828 2.02451172 -9.28847656 2.11152344 -10.04882812 2.20117188 C-13.16733121 2.58216546 -16.01108122 3.00369374 -19 4 C-21.33299825 4.03954234 -23.66708189 4.04401732 -26 4 C-17.34415191 -1.7705654 -9.8854264 -1.06834686 0 0 Z " fill="#CBBCA2" transform="translate(81,51)"/>
<path d="M0 0 C2 1 2 1 2.921875 3.14453125 C3.19515625 4.02496094 3.4684375 4.90539063 3.75 5.8125 C4.03359375 6.68519531 4.3171875 7.55789062 4.609375 8.45703125 C5.06152794 11.40054692 4.58473909 12.53676423 3 15 C2.34 15 1.68 15 1 15 C-0.09506492 11.71480525 -0.09960608 9.26336585 -0.0625 5.8125 C-0.05347656 4.72582031 -0.04445312 3.63914063 -0.03515625 2.51953125 C-0.02355469 1.68808594 -0.01195312 0.85664062 0 0 Z " fill="#CA3B1C" transform="translate(40,38)"/>
<path d="M0 0 C2.625 0.375 2.625 0.375 5 1 C5.625 2.875 5.625 2.875 6 5 C5.34 5.66 4.68 6.32 4 7 C1.375 6.625 1.375 6.625 -1 6 C-1.625 4.125 -1.625 4.125 -2 2 C-1.34 1.34 -0.68 0.68 0 0 Z " fill="#140F18" transform="translate(73,40)"/>
<path d="M0 0 C0.33 0 0.66 0 1 0 C1.36794764 3.31152874 1.29809215 4.60609252 -0.75 7.3125 C-3 9 -3 9 -7 9 C-7.66 7.35 -8.32 5.7 -9 4 C-7.88625 3.71125 -6.7725 3.4225 -5.625 3.125 C-1.99708908 2.30758671 -1.99708908 2.30758671 0 0 Z " fill="#CA5E43" transform="translate(104,79)"/>
<path d="M0 0 C1.32 0.33 2.64 0.66 4 1 C3.54177532 4.46941546 3.10868317 7.67395049 2 11 C0.35 10.01 -1.3 9.02 -3 8 C-2.37240135 5.07120629 -1.41377341 2.63904371 0 0 Z " fill="#1A1820" transform="translate(40,76)"/>
<path d="M0 0 C0.86625 0.2475 1.7325 0.495 2.625 0.75 C2.068125 0.976875 1.51125 1.20375 0.9375 1.4375 C-2.00746684 3.10896766 -4.05656544 5.30276352 -6.375 7.75 C-8.355 7.09 -10.335 6.43 -12.375 5.75 C-11.385 5.09 -10.395 4.43 -9.375 3.75 C-7.9828125 2.6671875 -7.9828125 2.6671875 -6.5625 1.5625 C-3.375 -0.25 -3.375 -0.25 0 0 Z " fill="#25242C" transform="translate(93.375,97.25)"/>
<path d="M0 0 C0.99 0 1.98 0 3 0 C4.32 2.31 5.64 4.62 7 7 C3.25 10 3.25 10 1 10 C0.67 6.7 0.34 3.4 0 0 Z " fill="#17141C" transform="translate(107,76)"/>
<path d="M0 0 C6 4 6 4 12 8 C11.01 9.485 11.01 9.485 10 11 C4.125 7.125 4.125 7.125 3 6 C2.34 6.66 1.68 7.32 1 8 C0.67 5.36 0.34 2.72 0 0 Z " fill="#D1795C" transform="translate(83,71)"/>
<path d="M0 0 C2.3125 0.1875 2.3125 0.1875 5 1 C6.8125 3.5625 6.8125 3.5625 8 6 C5.6875 6.6875 5.6875 6.6875 3 7 C1.1875 5.8125 1.1875 5.8125 0 4 C0 2.68 0 1.36 0 0 Z " fill="#0E0C16" transform="translate(49,91)"/>
<path d="M0 0 C1.485 0.99 1.485 0.99 3 2 C4.9896995 2.39013716 6.99019869 2.73202649 9 3 C8.01 3.495 8.01 3.495 7 4 C7 5.32 7 6.64 7 8 C2.25 7.25 2.25 7.25 0 5 C-0.125 2.375 -0.125 2.375 0 0 Z " fill="#C95B42" transform="translate(46,80)"/>
<path d="M0 0 C0.66 0 1.32 0 2 0 C2.05395478 1.62463842 2.09277195 3.24978541 2.125 4.875 C2.14820312 5.77992187 2.17140625 6.68484375 2.1953125 7.6171875 C2 10 2 10 0 12 C-1.32 12 -2.64 12 -4 12 C-2.125 8.125 -2.125 8.125 -1 7 C-0.63239269 4.67182036 -0.29758419 2.3381615 0 0 Z " fill="#F6CA97" transform="translate(105,77)"/>
<path d="M0 0 C0.66 0 1.32 0 2 0 C3.50662097 3.01324195 3.17770373 5.68286377 3 9 C2.34 9.66 1.68 10.32 1 11 C-0.98362069 8.08291076 -0.9876191 6.87619096 -0.625 3.25 C-0.41875 2.1775 -0.2125 1.105 0 0 Z " fill="#E6C29C" transform="translate(43,77)"/>
<path d="M0 0 C2.475 0.495 2.475 0.495 5 1 C5 3.64 5 6.28 5 9 C4.34 9 3.68 9 3 9 C2.01 6.03 1.02 3.06 0 0 Z " fill="#D43F21" transform="translate(106,59)"/>
<path d="M0 0 C0.66 0.33 1.32 0.66 2 1 C-2 5 -6 9 -10 13 C-8.16490101 7.32787586 -4.97304587 3.31536392 0 0 Z " fill="#EA6E30" transform="translate(54,38)"/>
<path d="M0 0 C0.66 0 1.32 0 2 0 C3.39300182 1.95890881 4.72245446 3.9639118 6 6 C6.99 7.485 6.99 7.485 8 9 C7.34 9.66 6.68 10.32 6 11 C6 10.34 6 9.68 6 9 C4.35 9 2.7 9 1 9 C1.66 8.01 2.32 7.02 3 6 C1.68 4.35 0.36 2.7 -1 1 C-0.67 0.67 -0.34 0.34 0 0 Z " fill="#1F1B21" transform="translate(53,90)"/>
<path d="M0 0 C1.32 0 2.64 0 4 0 C3.50351065 4.46840411 3.31012244 5.68987756 0 9 C0 6.03 0 3.06 0 0 Z " fill="#D73A1D" transform="translate(40,59)"/>
<path d="M0 0 C2.76276177 0.52268466 5.3260876 1.10869587 8 2 C9.1875 5.0625 9.1875 5.0625 10 8 C6.05205855 6.32971708 3.18203882 3.8204435 0 1 C0 0.67 0 0.34 0 0 Z " fill="#BCA18B" transform="translate(99,59)"/>
<path d="M0 0 C1.48828125 1.11328125 1.48828125 1.11328125 3 3 C3.29296875 5.91796875 3.29296875 5.91796875 3.1875 9.1875 C3.16042969 10.27417969 3.13335937 11.36085938 3.10546875 12.48046875 C3.07066406 13.31191406 3.03585938 14.14335938 3 15 C1.51171875 13.88671875 1.51171875 13.88671875 0 12 C-0.29296875 9.08203125 -0.29296875 9.08203125 -0.1875 5.8125 C-0.16042969 4.72582031 -0.13335937 3.63914063 -0.10546875 2.51953125 C-0.07066406 1.68808594 -0.03585938 0.85664063 0 0 Z " fill="#D34A25" transform="translate(108,31)"/>
<path d="M0 0 C0.86625 0.495 0.86625 0.495 1.75 1 C4.19883862 2.27075898 4.19883862 2.27075898 8 2 C8 2.99 8 3.98 8 5 C1.25 5.125 1.25 5.125 -1 4 C-0.67 2.68 -0.34 1.36 0 0 Z " fill="#FCC792" transform="translate(46,85)"/>
<path d="M0 0 C1.65 0.33 3.3 0.66 5 1 C4.67 2.32 4.34 3.64 4 5 C2.35 5 0.7 5 -1 5 C-0.67 3.35 -0.34 1.7 0 0 Z " fill="#180E1B" transform="translate(58,40)"/>
<path d="M0 0 C0.66 0 1.32 0 2 0 C2.22174933 1.45635371 2.42698698 2.91522956 2.625 4.375 C2.74101563 5.18710937 2.85703125 5.99921875 2.9765625 6.8359375 C2.98429687 7.55007812 2.99203125 8.26421875 3 9 C2.34 9.66 1.68 10.32 1 11 C0.8046875 8.94921875 0.609375 6.8984375 0.4140625 4.84765625 C0.27742188 4.23792969 0.14078125 3.62820312 0 3 C-0.66 2.67 -1.32 2.34 -2 2 C-1.34 1.34 -0.68 0.68 0 0 Z " fill="#F45D27" transform="translate(108,25)"/>
<path d="M0 0 C5.39449293 -0.27429625 8.51925805 -0.36055646 13 3 C10.40425121 4.2978744 8.89667268 4.26333388 6 4 C2.6875 2.5 2.6875 2.5 0 1 C0 0.67 0 0.34 0 0 Z " fill="#ED5B28" transform="translate(43,27)"/>
<path d="M0 0 C1.32 0.33 2.64 0.66 4 1 C3.01 1 2.02 1 1 1 C1 2.98 1 4.96 1 7 C-0.98 7.99 -0.98 7.99 -3 9 C-3 4.72290301 -2.29379749 3.44069624 0 0 Z " fill="#C07B62" transform="translate(81,105)"/>
<path d="M0 0 C2.29160319 -0.02692484 4.58329546 -0.04636124 6.875 -0.0625 C8.15117188 -0.07410156 9.42734375 -0.08570313 10.7421875 -0.09765625 C14 0 14 0 16 1 C16 1.66 16 2.32 16 3 C14.35 3 12.7 3 11 3 C11 2.34 11 1.68 11 1 C7.37 1 3.74 1 0 1 C0 0.67 0 0.34 0 0 Z " fill="#C2B096" transform="translate(70,50)"/>
<path d="M0 0 C2.475 0.495 2.475 0.495 5 1 C5 2.32 5 3.64 5 5 C3.35 4.67 1.7 4.34 0 4 C0 2.68 0 1.36 0 0 Z " fill="#0B0816" transform="translate(88,40)"/>
<path d="M0 0 C0.99 0.66 1.98 1.32 3 2 C0.36 3.98 -2.28 5.96 -5 8 C-4.1875 4.5625 -4.1875 4.5625 -3 1 C-2.01 0.67 -1.02 0.34 0 0 Z " fill="#C4B09A" transform="translate(47,59)"/>
<path d="M0 0 C-1.65 1.32 -3.3 2.64 -5 4 C-6.32 3.01 -7.64 2.02 -9 1 C-5.57367167 -0.61798838 -3.61944899 -1.34053666 0 0 Z " fill="#F66D34" transform="translate(109,25)"/>
<path d="M0 0 C-0.639375 0.103125 -1.27875 0.20625 -1.9375 0.3125 C-2.618125 0.539375 -3.29875 0.76625 -4 1 C-4.33 1.99 -4.66 2.98 -5 4 C-5 3.01 -5 2.02 -5 1 C-7.97 1 -10.94 1 -14 1 C-14 0.67 -14 0.34 -14 0 C-8.97874074 -0.77916092 -5.02296004 -1.13016601 0 0 Z " fill="#06040D" transform="translate(85,104)"/>
<path d="M0 0 C2.97 1.98 2.97 1.98 6 4 C5.67 4.99 5.34 5.98 5 7 C4.01 7 3.02 7 2 7 C0.5393715 4.35261084 0 3.10551666 0 0 Z " fill="#201D24" transform="translate(51,76)"/>
<path d="M0 0 C0 0.66 0 1.32 0 2 C-1.75 2.6875 -1.75 2.6875 -4 3 C-6.25 1.5625 -6.25 1.5625 -8 0 C-4.71023192 -1.09658936 -3.28696233 -0.79953138 0 0 Z " fill="#201B21" transform="translate(89,102)"/>
<path d="M0 0 C0.33 0 0.66 0 1 0 C1 2.64 1 5.28 1 8 C-0.32 8 -1.64 8 -3 8 C-2.25 2.25 -2.25 2.25 0 0 Z " fill="#B52E13" transform="translate(109,39)"/>
<path d="M0 0 C0.33 1.32 0.66 2.64 1 4 C0.01 4.66 -0.98 5.32 -2 6 C-3.65 4.68 -5.3 3.36 -7 2 C-4.69 1.34 -2.38 0.68 0 0 Z " fill="#F7C38A" transform="translate(80,112)"/>
<path d="M0 0 C0.33 1.32 0.66 2.64 1 4 C-0.65 4.33 -2.3 4.66 -4 5 C-4.33 3.68 -4.66 2.36 -5 1 C-2 0 -2 0 0 0 Z " fill="#FA6C34" transform="translate(109,55)"/>
<path d="M0 0 C0 3.69418201 -1.28179295 5.77836178 -3 9 C-3.66 8.67 -4.32 8.34 -5 8 C-5 7.01 -5 6.02 -5 5 C-4.34 5 -3.68 5 -3 5 C-2.5359375 4.0409375 -2.5359375 4.0409375 -2.0625 3.0625 C-1 1 -1 1 0 0 Z " fill="#CA754C" transform="translate(58,70)"/>
<path d="M0 0 C0.99 0 1.98 0 3 0 C2.67 1.32 2.34 2.64 2 4 C0.68 4.33 -0.64 4.66 -2 5 C-1.34 3.35 -0.68 1.7 0 0 Z " fill="#DCD9CE" transform="translate(91,100)"/>
</svg>
